<?xml version="1.0" encoding="UTF-8"?>
<svg version="1.1" xmlns="http://www.w3.org/2000/svg" width="200" height="200">
<path d="M0 0 C66 0 132 0 200 0 C200 66 200 132 200 200 C134 200 68 200 0 200 C0 134 0 68 0 0 Z " fill="#2C2B61" transform="translate(0,0)"/>
<path d="M0 0 C3.78786597 0.5260925 6.17152224 1.38103911 9 4 C9 4.66 9 5.32 9 6 C10.2375 5.835 11.475 5.67 12.75 5.5 C18.24705553 4.96293136 23.7307397 4.81821332 29.25 4.75 C30.11334961 4.72873047 30.97669922 4.70746094 31.86621094 4.68554688 C37.11198687 4.65713648 40.34404399 5.36349479 45 8 C48.06191921 7.76446775 50.26195058 7.36902471 53 6 C54.80948495 5.87823497 56.62396271 5.82454208 58.4375 5.8125 C59.40558594 5.79832031 60.37367188 5.78414062 61.37109375 5.76953125 C64 6 64 6 67 8 C67.27709961 9.88842773 67.27709961 9.88842773 67.15234375 12.18359375 C67.12188965 13.02398193 67.09143555 13.86437012 67.06005859 14.73022461 C67.01961426 15.62362549 66.97916992 16.51702637 66.9375 17.4375 C66.7389894 25.46432618 67.4310671 31.69280526 71 39 C71.67630551 40.66277872 72.3455497 42.32849857 73 44 C72.01 44 71.02 44 70 44 C70.495 46.97 70.495 46.97 71 50 C70.34 50 69.68 50 69 50 C68.85304688 50.60585937 68.70609375 51.21171875 68.5546875 51.8359375 C64.84445433 65.69600395 56.77215407 75.23329837 44.51025391 82.46923828 C41.85810012 83.91292897 39.1867928 85.30941044 36.5 86.6875 C35.15228516 87.39616211 35.15228516 87.39616211 33.77734375 88.11914062 C29.71588025 90.22672685 25.72094933 92.17362095 21.40625 93.70703125 C17.92314141 94.58913129 17.92314141 94.58913129 17 97 C11.7071281 97.07592234 7.1786485 96.72953391 2.875 93.4375 C-5.80367634 84.88180085 -10.02239239 71.50668704 -13 60 C-13.1757959 59.39454346 -13.3515918 58.78908691 -13.53271484 58.1652832 C-14.50118467 53.6776349 -14.18469346 49.00936156 -14.1875 44.4375 C-14.19974609 43.38369141 -14.21199219 42.32988281 -14.22460938 41.24414062 C-14.22654297 40.23416016 -14.22847656 39.22417969 -14.23046875 38.18359375 C-14.23457764 37.26118896 -14.23868652 36.33878418 -14.24291992 35.38842773 C-14 33 -14 33 -12 30 C-11.197767 27.24888683 -10.54259323 24.47889155 -9.87890625 21.69140625 C-9 19 -9 19 -7.4609375 16.9609375 C-5.71299795 14.61477266 -5.45710454 12.94000951 -5.0625 10.0625 C-4.31359174 5.72907357 -3.18011358 3.18011358 0 0 Z " fill="#ED7979" transform="translate(71,56)"/>
<path d="M0 0 C1.27351308 2.54702616 0.80191925 3.4282945 0.0625 6.125 C-0.13214844 6.84945312 -0.32679687 7.57390625 -0.52734375 8.3203125 C-0.68332031 8.87460938 -0.83929688 9.42890625 -1 10 C-0.34 10 0.32 10 1 10 C1 8.02 1 6.04 1 4 C1.66 4.33 2.32 4.66 3 5 C7.26446708 5.45079626 7.26446708 5.45079626 10.875 3.5 C11.24625 3.005 11.6175 2.51 12 2 C11.67 3.32 11.34 4.64 11 6 C13.97 6.99 16.94 7.98 20 9 C19.34 7.68 18.68 6.36 18 5 C18.99 5.33 19.98 5.66 21 6 C23.33299825 6.03954234 25.66708189 6.04401732 28 6 C28 5.34 28 4.68 28 4 C29.485 4.495 29.485 4.495 31 5 C33.06145107 5.068991 35.12501401 5.08467727 37.1875 5.0625 C38.27417969 5.05347656 39.36085937 5.04445313 40.48046875 5.03515625 C41.31191406 5.02355469 42.14335938 5.01195313 43 5 C42.67 5.66 42.34 6.32 42 7 C39.69 7 37.38 7 35 7 C35.20625 7.9075 35.4125 8.815 35.625 9.75 C36.0127245 13.11027897 35.80411967 14.24075815 34 17 C33.505 14.525 33.505 14.525 33 12 C31.35 12.33 29.7 12.66 28 13 C28.99 12.34 29.98 11.68 31 11 C31.72382467 8.94074861 31.72382467 8.94074861 32 7 C30.02 7.33 28.04 7.66 26 8 C25.67 8.99 25.34 9.98 25 11 C25 10.01 25 9.02 25 8 C24.34 8.66 23.68 9.32 23 10 C25.93828597 12.50298434 28.17902761 13.46930939 32 14 C31.34 14.66 30.68 15.32 30 16 C30.33 16.33 30.66 16.66 31 17 C31.07258946 19.18639453 31.08373783 21.37500389 31.0625 23.5625 C31.05347656 24.76003906 31.04445312 25.95757812 31.03515625 27.19140625 C31.02355469 28.11824219 31.01195312 29.04507813 31 30 C30.01 30.33 29.02 30.66 28 31 C28.33 31.66 28.66 32.32 29 33 C29.16796875 34.875 29.16796875 34.875 29.1875 37 C29.20167969 37.70125 29.21585938 38.4025 29.23046875 39.125 C29 41 29 41 27 43 C27.02320312 42.40832031 27.04640625 41.81664062 27.0703125 41.20703125 C27.24535475 33.82791299 27.24535475 33.82791299 23.7109375 27.51953125 C21.12907639 25.22650848 18.13397406 23.90902158 15.05859375 22.37890625 C12.7308991 20.81974835 12.01133982 19.57481651 11 17 C11.99 15.68 12.98 14.36 14 13 C13.01 12.34 12.02 11.68 11 11 C12.65 11.33 14.3 11.66 16 12 C15.67 11.34 15.34 10.68 15 10 C11.7 10 8.4 10 5 10 C5 10.66 5 11.32 5 12 C4.34 12 3.68 12 3 12 C3.99 12.99 4.98 13.98 6 15 C6.33 14.34 6.66 13.68 7 13 C7.99 14.32 8.98 15.64 10 17 C9.34 18.32 8.68 19.64 8 21 C9.31201173 22.56249809 9.31201173 22.56249809 11 24 C11.99 24 12.98 24 14 24 C14.26554687 24.56589844 14.53109375 25.13179687 14.8046875 25.71484375 C15.15789062 26.44832031 15.51109375 27.18179688 15.875 27.9375 C16.22304687 28.66839844 16.57109375 29.39929688 16.9296875 30.15234375 C17.8684977 32.16332459 17.8684977 32.16332459 20 33 C20.33 31.02 20.66 29.04 21 27 C23.5 28.4375 23.5 28.4375 26 31 C26.4451258 34.04256578 26.29359745 36.9465865 26 40 C25.67 38.68 25.34 37.36 25 36 C24.54625 36.45375 24.0925 36.9075 23.625 37.375 C22.41666667 38.58333333 21.20833333 39.79166667 20 41 C20.33 39.35 20.66 37.7 21 36 C17.24084505 38.5061033 17.27436746 39.81949803 16.3125 44.125 C16.06113281 45.22070312 15.80976562 46.31640625 15.55078125 47.4453125 C15.36902344 48.28835937 15.18726562 49.13140625 15 50 C13.68 49.67 12.36 49.34 11 49 C9.515 51.475 9.515 51.475 8 54 C7.34 53.67 6.68 53.34 6 53 C6.75539568 47.46043165 6.75539568 47.46043165 8.0625 45 C9.38975831 42.1685156 9.31576984 40.09454447 9 37 C7.61114752 34.18219466 7.61114752 34.18219466 6 32 C5.34 32.66 4.68 33.32 4 34 C3.54625 33.236875 3.0925 32.47375 2.625 31.6875 C1.46175508 29.76367186 0.2470585 27.87058776 -1 26 C-1.61632454 21.27751329 -1.57144789 17.19051643 0.5 12.875 C0.995 12.25625 1.49 11.6375 2 11 C0.35 11.33 -1.3 11.66 -3 12 C-2.88541307 10.56163249 -2.75790884 9.12429034 -2.625 7.6875 C-2.55539063 6.88699219 -2.48578125 6.08648437 -2.4140625 5.26171875 C-2 3 -2 3 0 0 Z " fill="#F4EDE9" transform="translate(63,74)"/>
<path d="M0 0 C3.3 0 6.6 0 10 0 C10.66 1.32 11.32 2.64 12 4 C11.34 4 10.68 4 10 4 C8.3553326 6.46326712 8.3553326 6.46326712 7 9 C9.09599423 12.14399134 10.11911126 12.78792182 13.375 14.4375 C20.14292446 18.13700855 20.14292446 18.13700855 22 21 C23.32752149 26.73608164 23.42032031 31.55427931 21 37 C20.45811685 38.29157586 19.91645446 39.58324436 19.375 40.875 C18.92125 41.90625 18.4675 42.9375 18 44 C17.67 42.68 17.34 41.36 17 40 C17.04640625 40.81984375 17.0928125 41.6396875 17.140625 42.484375 C17.19476563 44.10085937 17.19476563 44.10085937 17.25 45.75 C17.29640625 46.81734375 17.3428125 47.8846875 17.390625 48.984375 C16.9119108 52.68004859 15.89337228 53.74137118 13 56 C9.8851258 57.19802854 8.52473986 57.18740709 5.375 56.0625 C2.16578876 53.27555339 0.7837447 50.16664277 0 46 C0.4296875 43.74609375 0.4296875 43.74609375 1 42 C1.66 42.66 2.32 43.32 3 44 C3.99 42.35 4.98 40.7 6 39 C6.99 39.33 7.98 39.66 9 40 C9.17015625 39.22914062 9.3403125 38.45828125 9.515625 37.6640625 C9.75796875 36.66117188 10.0003125 35.65828125 10.25 34.625 C10.59804687 33.12839844 10.59804687 33.12839844 10.953125 31.6015625 C12 29 12 29 14.109375 27.6484375 C14.73328125 27.43445313 15.3571875 27.22046875 16 27 C16 27.99 16 28.98 16 30 C16.66 29.01 17.32 28.02 18 27 C18.66 27 19.32 27 20 27 C20.34900558 23.28263359 20.34900558 23.28263359 18.5 20.1875 C18.005 19.795625 17.51 19.40375 17 19 C16.67 20.98 16.34 22.96 16 25 C14.1875 24.375 14.1875 24.375 12 23 C11.54625 22.01 11.0925 21.02 10.625 20 C8.56171816 16.1908643 6.99858369 16.21696025 3 15 C2 13.0625 2 13.0625 2 11 C2.66 10.01 3.32 9.02 4 8 C1.1315587 5.89767656 1.1315587 5.89767656 -2 5 C-1.34 3.35 -0.68 1.7 0 0 Z " fill="#E8A3A0" transform="translate(68,83)"/>
<path d="M0 0 C-0.33 0.61875 -0.66 1.2375 -1 1.875 C-2.60444605 6.8888939 -3.1274887 12.23520163 -1.1015625 17.203125 C0.07942818 19.32834147 0.07942818 19.32834147 2 22 C2.66 21.01 3.32 20.02 4 19 C8.87804878 26.62195122 8.87804878 26.62195122 8 32 C7.34234849 33.30711649 6.65191129 34.59802093 5.9375 35.875 C4.20467144 39.009735 3.8152837 40.78012621 4.4375 44.3125 C4.623125 45.529375 4.80875 46.74625 5 48 C3.53515625 49.73046875 3.53515625 49.73046875 2 51 C-1.08467498 45.60540561 -2.55643705 41.20988129 -3 35 C-3.66 35 -4.32 35 -5 35 C-5 30.05 -5 25.1 -5 20 C-5.33 21.65 -5.66 23.3 -6 25 C-6.33 25 -6.66 25 -7 25 C-7.07485655 21.10745958 -6.93973036 17.75892143 -6 14 C-6.33 13.01 -6.66 12.02 -7 11 C-7.24993939 7.08428284 -7.21009997 4.31514995 -5 1 C-3 0 -3 0 0 0 Z " fill="#EE7676" transform="translate(65,85)"/>
<path d="M0 0 C2.74855776 2.37375443 3.6829917 4.66357897 5 8 C5.66 8.33 6.32 8.66 7 9 C7.33 7.02 7.66 5.04 8 3 C10.5 4.4375 10.5 4.4375 13 7 C13.4451258 10.04256578 13.29359745 12.9465865 13 16 C12.67 14.68 12.34 13.36 12 12 C11.319375 12.680625 11.319375 12.680625 10.625 13.375 C9.41666667 14.58333333 8.20833333 15.79166667 7 17 C7.33 15.35 7.66 13.7 8 12 C4.24084505 14.5061033 4.27436746 15.81949803 3.3125 20.125 C3.06113281 21.22070312 2.80976562 22.31640625 2.55078125 23.4453125 C2.36902344 24.28835937 2.18726562 25.13140625 2 26 C0.68 25.67 -0.64 25.34 -2 25 C-3.485 27.475 -3.485 27.475 -5 30 C-5.66 29.67 -6.32 29.34 -7 29 C-6.24460432 23.46043165 -6.24460432 23.46043165 -4.9375 21 C-3.61024169 18.1685156 -3.68423016 16.09454447 -4 13 C-4.9873454 11.32580562 -5.98812105 9.65948148 -7 8 C-7.6875 4.1875 -7.6875 4.1875 -8 1 C-6.865625 1.020625 -5.73125 1.04125 -4.5625 1.0625 C-1.18424326 1.41577477 -1.18424326 1.41577477 0 0 Z " fill="#F4EDE7" transform="translate(76,98)"/>
<path d="M0 0 C1.27351308 2.54702616 0.80191925 3.4282945 0.0625 6.125 C-0.13214844 6.84945312 -0.32679687 7.57390625 -0.52734375 8.3203125 C-0.68332031 8.87460938 -0.83929688 9.42890625 -1 10 C-0.34 10 0.32 10 1 10 C1 8.02 1 6.04 1 4 C1.66 4.33 2.32 4.66 3 5 C7.26446708 5.45079626 7.26446708 5.45079626 10.875 3.5 C11.24625 3.005 11.6175 2.51 12 2 C11.67 3.32 11.34 4.64 11 6 C15.95 7.98 15.95 7.98 21 10 C18 11 18 11 15 10 C13.27204648 9.93197033 11.54164635 9.91504355 9.8125 9.9375 C8.91144531 9.94652344 8.01039062 9.95554687 7.08203125 9.96484375 C6.05142578 9.98224609 6.05142578 9.98224609 5 10 C5 10.66 5 11.32 5 12 C4.34 12 3.68 12 3 12 C3.99 12.99 4.98 13.98 6 15 C6.33 14.34 6.66 13.68 7 13 C7.99 14.32 8.98 15.64 10 17 C9.34 18.32 8.68 19.64 8 21 C9.32 22.65 10.64 24.3 12 26 C10.02 26 8.04 26 6 26 C5.67 26.99 5.34 27.98 5 29 C5.66 29.33 6.32 29.66 7 30 C6.34 30 5.68 30 5 30 C4.67 31.32 4.34 32.64 4 34 C3.54625 33.236875 3.0925 32.47375 2.625 31.6875 C1.46175508 29.76367186 0.2470585 27.87058776 -1 26 C-1.61632454 21.27751329 -1.57144789 17.19051643 0.5 12.875 C0.995 12.25625 1.49 11.6375 2 11 C0.35 11.33 -1.3 11.66 -3 12 C-2.88541307 10.56163249 -2.75790884 9.12429034 -2.625 7.6875 C-2.55539063 6.88699219 -2.48578125 6.08648437 -2.4140625 5.26171875 C-2 3 -2 3 0 0 Z " fill="#EAE3E2" transform="translate(63,74)"/>
<path d="M0 0 C1.49341969 2.98683937 0.40648676 4.95160978 -0.4375 8.125 C-0.72496094 9.22070312 -1.01242188 10.31640625 -1.30859375 11.4453125 C-1.53675781 12.28835937 -1.76492187 13.13140625 -2 14 C0.31 14 2.62 14 5 14 C3.48968084 19.26122171 1.09625809 23.67232586 -1.625 28.375 C-2.04523438 29.11105469 -2.46546875 29.84710938 -2.8984375 30.60546875 C-3.92752764 32.4063765 -4.96310756 34.20357318 -6 36 C-7.10452257 32.23121373 -6.68900462 30.03505551 -5.5625 26.25 C-5.27503906 25.26515625 -4.98757812 24.2803125 -4.69140625 23.265625 C-4.46324219 22.51796875 -4.23507813 21.7703125 -4 21 C-6.31 20.67 -8.62 20.34 -11 20 C-9.56952311 14.89115395 -7.28610306 10.98255739 -4.375 6.625 C-3.95476562 5.98433594 -3.53453125 5.34367187 -3.1015625 4.68359375 C-2.07370232 3.11844302 -1.03768114 1.55865686 0 0 Z " fill="#E5BD50" transform="translate(165,87)"/>
<path d="M0 0 C1.18414294 3.55242882 0.69535532 4.69830562 -0.4375 8.1875 C-0.72496094 9.08855469 -1.01242188 9.98960938 -1.30859375 10.91796875 C-1.53675781 11.60503906 -1.76492187 12.29210937 -2 13 C0.64 13 3.28 13 6 13 C4.3003494 17.73474097 1.86340973 21.96167111 -0.625 26.3125 C-1.04523437 27.05306641 -1.46546875 27.79363281 -1.8984375 28.55664062 C-2.92948495 30.37269011 -3.96436046 32.18656533 -5 34 C-6.21065165 30.36804504 -5.62784815 28.93468371 -4.5625 25.3125 C-4.27503906 24.31863281 -3.98757812 23.32476562 -3.69140625 22.30078125 C-3.46324219 21.54152344 -3.23507813 20.78226563 -3 20 C-5.64 19.67 -8.28 19.34 -11 19 C-7.84461976 12.3105939 -4.04769554 6.18524262 0 0 Z " fill="#E7BF50" transform="translate(38,88)"/>
<path d="M0 0 C0.33 0 0.66 0 1 0 C0.67 2.64 0.34 5.28 0 8 C0.99 7.34 1.98 6.68 3 6 C3.495 7.485 3.495 7.485 4 9 C1.00429109 10.61227389 -1.99730217 12.21328538 -5 13.8125 C-6.25876953 14.49022461 -6.25876953 14.49022461 -7.54296875 15.18164062 C-11.4887978 17.27690644 -15.34762194 19.20425419 -19.5625 20.69921875 C-23.07461021 21.58400346 -23.07461021 21.58400346 -24 24 C-33.17286652 23.64989059 -33.17286652 23.64989059 -36.625 20.9375 C-37.07875 20.298125 -37.5325 19.65875 -38 19 C-37.01 19 -36.02 19 -35 19 C-34.67 18.01 -34.34 17.02 -34 16 C-32.35 17.65 -30.7 19.3 -29 21 C-28.67 20.34 -28.34 19.68 -28 19 C-27.34 19.66 -26.68 20.32 -26 21 C-25.81824219 20.44570312 -25.63648437 19.89140625 -25.44921875 19.3203125 C-25.19785156 18.59585938 -24.94648437 17.87140625 -24.6875 17.125 C-24.44386719 16.40570313 -24.20023438 15.68640625 -23.94921875 14.9453125 C-23 13 -23 13 -20 11 C-20.33 11.763125 -20.66 12.52625 -21 13.3125 C-22.17436686 15.99069135 -22.17436686 15.99069135 -22 19 C-20.10786631 16.61426621 -18.97608217 14.92824652 -18 12 C-16 13 -16 13 -15 15 C-13.68 12.69 -12.36 10.38 -11 8 C-10.01 9.485 -10.01 9.485 -9 11 C-8.34 9.35 -7.68 7.7 -7 6 C-6.67 6 -6.34 6 -6 6 C-6 7.65 -6 9.3 -6 11 C-2.90407165 7.4912812 -1.25805377 4.50802601 0 0 Z " fill="#DCBBBE" transform="translate(112,129)"/>
<path d="M0 0 C3.76706644 0.52320367 6.27388801 1.27388801 9 4 C9 8 9 8 7.5390625 9.484375 C6.90742187 9.90203125 6.27578125 10.3196875 5.625 10.75 C4.68527344 11.39195313 4.68527344 11.39195313 3.7265625 12.046875 C2 13 2 13 0 13 C-0.825 13.825 -1.65 14.65 -2.5 15.5 C-3.7375 16.7375 -3.7375 16.7375 -5 18 C-5.66 18 -6.32 18 -7 18 C-6.60072656 15.93406242 -6.17979277 13.87230473 -5.75 11.8125 C-5.51796875 10.66394531 -5.2859375 9.51539062 -5.046875 8.33203125 C-3.93105432 4.78055722 -2.48884695 2.7305325 0 0 Z " fill="#DABEC2" transform="translate(71,56)"/>
<path d="M0 0 C3.875 1.75 3.875 1.75 5 4 C8.02934491 4.65772428 8.02934491 4.65772428 11 5 C11.33 4.01 11.66 3.02 12 2 C15.60654039 4.40436026 15.85452932 5.94679607 17 10 C14.97263306 12.3277176 13.4668261 13.8204515 10.5625 14.9375 C7.00788074 15.02419803 5.69074314 14.33669799 3 12 C0.84168436 7.94133473 0 4.61018358 0 0 Z " fill="#AAA0AE" transform="translate(68,125)"/>
<path d="M0 0 C1.34753236 2.69506472 0.61023958 4.08441088 0 7 C-0.19762523 10.64373996 -0.19762523 10.64373996 1 14 C1 15.32 1 16.64 1 18 C1.33 18.99 1.66 19.98 2 21 C1.91382274 23.232269 1.76077759 25.46238486 1.5625 27.6875 C1.40974609 29.45673828 1.40974609 29.45673828 1.25390625 31.26171875 C1.12822266 32.61716797 1.12822266 32.61716797 1 34 C1.66 34 2.32 34 3 34 C3 31.36 3 28.72 3 26 C3.33 26 3.66 26 4 26 C4.03738281 27.07378906 4.07476562 28.14757812 4.11328125 29.25390625 C4.17899112 30.6901362 4.24543668 32.12633262 4.3125 33.5625 C4.33505859 34.26697266 4.35761719 34.97144531 4.38085938 35.69726562 C4.63747309 40.75955442 5.76766402 44.44555581 8 49 C8.99 48.505 8.99 48.505 10 48 C10 50.64 10 53.28 10 56 C3.7955711 48.86490677 1.53014835 38.87333719 -1 30 C-1.17869629 29.38946777 -1.35739258 28.77893555 -1.54150391 28.14990234 C-2.49779337 23.66583152 -2.18469698 19.00362501 -2.1875 14.4375 C-2.19974609 13.38369141 -2.21199219 12.32988281 -2.22460938 11.24414062 C-2.22654297 10.23416016 -2.22847656 9.22417969 -2.23046875 8.18359375 C-2.23457764 7.26118896 -2.23868652 6.33878418 -2.24291992 5.38842773 C-2 3 -2 3 0 0 Z " fill="#E0C5C8" transform="translate(59,86)"/>
<path d="M0 0 C3.3 0 6.6 0 10 0 C10.66 1.32 11.32 2.64 12 4 C11.34 4 10.68 4 10 4 C8.3553326 6.46326712 8.3553326 6.46326712 7 9 C8.98 11.97 8.98 11.97 11 15 C10.34 15.66 9.68 16.32 9 17 C6.0625 16.25 6.0625 16.25 3 15 C2 13.0625 2 13.0625 2 11 C2.66 10.01 3.32 9.02 4 8 C1.1315587 5.89767656 1.1315587 5.89767656 -2 5 C-1.34 3.35 -0.68 1.7 0 0 Z " fill="#84809D" transform="translate(68,83)"/>
<path d="M0 0 C1.27351308 2.54702616 0.80191925 3.4282945 0.0625 6.125 C-0.13214844 6.84945312 -0.32679687 7.57390625 -0.52734375 8.3203125 C-0.68332031 8.87460938 -0.83929688 9.42890625 -1 10 C-0.34 10 0.32 10 1 10 C1 8.02 1 6.04 1 4 C1.66 4.33 2.32 4.66 3 5 C7.26446708 5.45079626 7.26446708 5.45079626 10.875 3.5 C11.24625 3.005 11.6175 2.51 12 2 C11.67 3.32 11.34 4.64 11 6 C15.95 7.98 15.95 7.98 21 10 C18 11 18 11 15 10 C9.26539881 9.57558029 4.39132468 9.84347013 -1 12 C-1.66 12 -2.32 12 -3 12 C-2.88541307 10.56163249 -2.75790884 9.12429034 -2.625 7.6875 C-2.55539063 6.88699219 -2.48578125 6.08648437 -2.4140625 5.26171875 C-2 3 -2 3 0 0 Z " fill="#C7B5BE" transform="translate(63,74)"/>
<path d="M0 0 C2.29104056 0.91641622 3.75057101 1.69118315 5.3125 3.625 C6.36457706 7.25944801 5.61928668 10.28427995 5 14 C4.34 14 3.68 14 3 14 C3 15.32 3 16.64 3 18 C2.34 18 1.68 18 1 18 C0 14 -1 10 -2 6 C-1.34 5.67 -0.68 5.34 0 5 C-0.33 4.01 -0.66 3.02 -1 2 C-0.67 1.34 -0.34 0.68 0 0 Z " fill="#E7A6A7" transform="translate(128,90)"/>
<path d="M0 0 C0.8465918 -0.02964844 1.69318359 -0.05929688 2.56542969 -0.08984375 C8.73451003 -0.14756614 12.5494696 1.19466638 17.875 4.3125 C17.875 4.6425 17.875 4.9725 17.875 5.3125 C14.245 5.9725 10.615 6.6325 6.875 7.3125 C6.875 6.6525 6.875 5.9925 6.875 5.3125 C8.525 4.6525 10.175 3.9925 11.875 3.3125 C5.98742944 1.34997648 -1.73009741 1.08626547 -7.6015625 3.20703125 C-9.68406474 4.36737496 -9.68406474 4.36737496 -12.125 6.3125 C-11.795 5.3225 -11.465 4.3325 -11.125 3.3125 C-14.2081351 4.51149698 -17.18779492 5.78950477 -20.125 7.3125 C-19.135 5.9925 -18.145 4.6725 -17.125 3.3125 C-18.115 2.6525 -19.105 1.9925 -20.125 1.3125 C-13.42541168 0.41922156 -6.75165383 0.11901557 0 0 Z " fill="#E4CECF" transform="translate(100.125,60.6875)"/>
<path d="M0 0 C2.375 0.3125 2.375 0.3125 5 1 C5.66 1.99 6.32 2.98 7 4 C6.01 4 5.02 4 4 4 C4.70125 4.495 5.4025 4.99 6.125 5.5 C8 8 8 8 7.8203125 10.046875 C7.30029018 12.05572835 6.65619471 14.03141587 6 16 C5.62875 15.0409375 5.62875 15.0409375 5.25 14.0625 C4.20311706 11.80104993 4.20311706 11.80104993 1.9375 11.4375 C1.298125 11.293125 0.65875 11.14875 0 11 C-0.33 10.01 -0.66 9.02 -1 8 C-0.01 8 0.98 8 2 8 C1.34 7.67 0.68 7.34 0 7 C0 4.69 0 2.38 0 0 Z " fill="#B35D6D" transform="translate(114,77)"/>
<path d="M0 0 C0.99 0.33 1.98 0.66 3 1 C5.06145107 1.068991 7.12501401 1.08467727 9.1875 1.0625 C10.27417969 1.05347656 11.36085938 1.04445313 12.48046875 1.03515625 C13.31191406 1.02355469 14.14335938 1.01195313 15 1 C14.67 1.66 14.34 2.32 14 3 C11.69 3 9.38 3 7 3 C7.20625 3.9075 7.4125 4.815 7.625 5.75 C8.0127245 9.11027897 7.80411967 10.24075815 6 13 C5.67 11.35 5.34 9.7 5 8 C3.35 8.33 1.7 8.66 0 9 C0.99 8.34 1.98 7.68 3 7 C3.72382467 4.94074861 3.72382467 4.94074861 4 3 C2.02 3.33 0.04 3.66 -2 4 C-2.33 4.99 -2.66 5.98 -3 7 C-3 6.01 -3 5.02 -3 4 C-4.98 4.99 -4.98 4.99 -7 6 C-7.99 5.01 -8.98 4.02 -10 3 C-9.67 2.34 -9.34 1.68 -9 1 C-8.34 1.33 -7.68 1.66 -7 2 C-4.6670134 2.04022391 -2.33293334 2.04320247 0 2 C0 1.34 0 0.68 0 0 Z " fill="#DAC1C5" transform="translate(91,78)"/>
<path d="M0 0 C2.4375 0.875 2.4375 0.875 3.58984375 2.9296875 C3.86957031 3.57164063 4.14929688 4.21359375 4.4375 4.875 C3.64085938 5.25591797 3.64085938 5.25591797 2.828125 5.64453125 C2.12171875 5.98871094 1.4153125 6.33289063 0.6875 6.6875 C-0.00859375 7.02394531 -0.7046875 7.36039062 -1.421875 7.70703125 C-3.6434174 8.91915019 -5.575217 10.31292394 -7.5625 11.875 C-7.30726126 10.24747769 -7.03275506 8.62296804 -6.75 7 C-6.59917969 6.09507813 -6.44835937 5.19015625 -6.29296875 4.2578125 C-5.21988148 0.75736741 -3.61694593 -0.17643639 0 0 Z " fill="#313065" transform="translate(74.5625,58.125)"/>
<path d="M0 0 C0 3.20395416 -0.74335022 5.09399739 -2 8 C-0.68 8.33 0.64 8.66 2 9 C1.360625 9.28875 0.72125 9.5775 0.0625 9.875 C-2.15206079 10.82823451 -2.15206079 10.82823451 -3 13 C-12.17286652 12.64989059 -12.17286652 12.64989059 -15.625 9.9375 C-16.07875 9.298125 -16.5325 8.65875 -17 8 C-16.01 8 -15.02 8 -14 8 C-13.67 7.01 -13.34 6.02 -13 5 C-11.35 6.65 -9.7 8.3 -8 10 C-7.67 9.34 -7.34 8.68 -7 8 C-6.34 8.66 -5.68 9.32 -5 10 C-4.80664062 9.44570312 -4.61328125 8.89140625 -4.4140625 8.3203125 C-4.15367188 7.59585938 -3.89328125 6.87140625 -3.625 6.125 C-3.36976562 5.40570313 -3.11453125 4.68640625 -2.8515625 3.9453125 C-2 2 -2 2 0 0 Z " fill="#D6BFC4" transform="translate(91,140)"/>
<path d="M0 0 C0.33 0.66 0.66 1.32 1 2 C4.96 2 8.92 2 13 2 C13 2.99 13 3.98 13 5 C10.875 6.8125 10.875 6.8125 8 8 C4.8125 7.375 4.8125 7.375 2 6 C0 3 0 3 0 0 Z " fill="#E7CECE" transform="translate(70,132)"/>
<path d="M0 0 C4.8980305 2.35831098 8.95486375 4.35216046 12 9 C8.125 7.125 8.125 7.125 7 6 C6.67 7.98 6.34 9.96 6 12 C3.21882328 10.9802352 2.18166898 10.33608762 0.75 7.6875 C-0.00511726 4.98166314 -0.1595955 2.79292118 0 0 Z " fill="#DBD6D9" transform="translate(78,96)"/>
<path d="M0 0 C0.33 0 0.66 0 1 0 C1 3.66666667 1 7.33333333 1 11 C-0.75 12.60546875 -0.75 12.60546875 -3 14.1875 C-3.7425 14.71730469 -4.485 15.24710938 -5.25 15.79296875 C-5.8275 16.19128906 -6.405 16.58960938 -7 17 C-7.66 16.67 -8.32 16.34 -9 16 C-8.38125 14.989375 -7.7625 13.97875 -7.125 12.9375 C-5.07056045 9.36772915 -3.97730425 5.990659 -3 2 C-2.67 2 -2.34 2 -2 2 C-2.33 4.97 -2.66 7.94 -3 11 C-2.01 7.37 -1.02 3.74 0 0 Z " fill="#DEC5C7" transform="translate(125,120)"/>
<path d="M0 0 C-0.33 1.65 -0.66 3.3 -1 5 C-0.01 3.68 0.98 2.36 2 1 C2 2.98 2 4.96 2 7 C-1.1875 7.3125 -1.1875 7.3125 -5 7 C-7.9375 4.5 -7.9375 4.5 -10 2 C-8.66666667 1.66666667 -7.33333333 1.33333333 -6 1 C-5.29875 0.814375 -4.5975 0.62875 -3.875 0.4375 C-2 0 -2 0 0 0 Z " fill="#54527C" transform="translate(95,81)"/>
<path d="M0 0 C3.3 0 6.6 0 10 0 C10.66 1.32 11.32 2.64 12 4 C9.03 3.505 9.03 3.505 6 3 C5.67 3.99 5.34 4.98 5 6 C3.02 6 1.04 6 -1 6 C-1 2 -1 2 0 0 Z " fill="#3D3C6D" transform="translate(68,83)"/>
<path d="M0 0 C2 3 2 3 1.9375 4.9375 C0.30555721 8.52777415 -2.58995933 10.43598373 -6.1875 11.875 C-7.0846875 11.936875 -7.0846875 11.936875 -8 12 C-8.66 11.34 -9.32 10.68 -10 10 C-9.01 8.02 -8.02 6.04 -7 4 C-5 5 -5 5 -4 7 C-2.68 4.69 -1.36 2.38 0 0 Z " fill="#DFB8BB" transform="translate(101,137)"/>
<path d="M0 0 C2 2 2 2 2.1953125 4.3828125 C2.17210938 5.28773437 2.14890625 6.19265625 2.125 7.125 C2.10695313 8.03507812 2.08890625 8.94515625 2.0703125 9.8828125 C2.04710938 10.58148438 2.02390625 11.28015625 2 12 C1.01 12 0.02 12 -1 12 C-1 12.66 -1 13.32 -1 14 C-1.66 14 -2.32 14 -3 14 C-3 10.04 -3 6.08 -3 2 C-2.34 2 -1.68 2 -1 2 C-0.67 1.34 -0.34 0.68 0 0 Z " fill="#EAA8A8" transform="translate(121,104)"/>
<path d="M0 0 C1.32 0.66 2.64 1.32 4 2 C3.67 2.99 3.34 3.98 3 5 C3.27769908 7.3406065 3.60539977 9.67624308 4 12 C1.69 12.66 -0.62 13.32 -3 14 C-2.25 7.375 -2.25 7.375 0 4 C0 2.68 0 1.36 0 0 Z " fill="#E6BEBF" transform="translate(112,87)"/>
<path d="M0 0 C1.9375 0.625 1.9375 0.625 4 2 C4.75 5.125 4.75 5.125 5 8 C3.02 8 1.04 8 -1 8 C-1.625 5.6875 -1.625 5.6875 -2 3 C-1.34 2.01 -0.68 1.02 0 0 Z " fill="#F3C955" transform="translate(74,122)"/>
<path d="M0 0 C0.66 0 1.32 0 2 0 C1.01 2.97 0.02 5.94 -1 9 C-1.886875 9.103125 -2.77375 9.20625 -3.6875 9.3125 C-7.0573702 10.01190702 -9.17271538 11.08742511 -12 13 C-11.6875 11.0625 -11.6875 11.0625 -11 9 C-10.01 8.67 -9.02 8.34 -8 8 C-7.34 7.34 -6.68 6.68 -6 6 C-5.67 6.33 -5.34 6.66 -5 7 C-4.34 5.68 -3.68 4.36 -3 3 C-2.01 3.33 -1.02 3.66 0 4 C0 2.68 0 1.36 0 0 Z " fill="#E4B2B4" transform="translate(109,116)"/>
<path d="M0 0 C0.66 0 1.32 0 2 0 C1.52372025 1.95903745 1.04388577 3.91721097 0.5625 5.875 C0.29566406 6.96554688 0.02882813 8.05609375 -0.24609375 9.1796875 C-1 12 -1 12 -2 14 C-2.66 14 -3.32 14 -4 14 C-3.71831703 12.04020573 -3.42433283 10.08217622 -3.125 8.125 C-2.96257812 7.03445312 -2.80015625 5.94390625 -2.6328125 4.8203125 C-2 2 -2 2 0 0 Z " fill="#F2CA5A" transform="translate(82,110)"/>
<path d="M0 0 C-0.33 0.66 -0.66 1.32 -1 2 C-6.83208833 3.90868345 -9.41684071 4.35080391 -15 2 C-10.50856798 -0.80714501 -5.02072498 -1.67357499 0 0 Z " fill="#AF5C6E" transform="translate(137,65)"/>
<path d="M0 0 C0.99 0 1.98 0 3 0 C5 2 5 2 5 5 C4.34 5 3.68 5 3 5 C2.01 8.3 1.02 11.6 0 15 C-1.18171502 10.27313993 -1.54941432 6.64824295 0 2 C0 1.34 0 0.68 0 0 Z " fill="#DDCBCE" transform="translate(137,101)"/>
<path d="M0 0 C0.66 0 1.32 0 2 0 C2.20496094 0.69867188 2.40992188 1.39734375 2.62109375 2.1171875 C2.89050781 3.02726562 3.15992187 3.93734375 3.4375 4.875 C3.70433594 5.77992188 3.97117187 6.68484375 4.24609375 7.6171875 C4.92613826 9.98275381 4.92613826 9.98275381 6 12 C6.66 11.67 7.32 11.34 8 11 C8 13.64 8 16.28 8 19 C3.42636148 13.7403157 0.70652305 6.88859977 0 0 Z " fill="#D6C2C7" transform="translate(61,123)"/>
<path d="M0 0 C1.32 0.33 2.64 0.66 4 1 C6.42857143 8.42857143 6.42857143 8.42857143 5 12 C4.34 12 3.68 12 3 12 C2 8 1 4 0 0 Z " fill="#E89D9E" transform="translate(126,96)"/>
<path d="M0 0 C-0.99 2.97 -1.98 5.94 -3 9 C-4.32 8.67 -5.64 8.34 -7 8 C-6.62952882 5.25851328 -6.31412056 3.41406801 -4.625 1.1875 C-3 0 -3 0 0 0 Z " fill="#EB8B8B" transform="translate(65,85)"/>
<path d="M0 0 C0.66 0 1.32 0 2 0 C1.50769231 6.4 1.50769231 6.4 -1.0625 9.4375 C-1.701875 9.953125 -2.34125 10.46875 -3 11 C-2.69217504 9.35328588 -2.37860766 7.70764424 -2.0625 6.0625 C-1.88847656 5.14597656 -1.71445313 4.22945313 -1.53515625 3.28515625 C-1 1 -1 1 0 0 Z " fill="#F3CA54" transform="translate(86,110)"/>
<path d="M0 0 C0.33 0 0.66 0 1 0 C1 1.65 1 3.3 1 5 C1.99 4.67 2.98 4.34 4 4 C4.33 4.66 4.66 5.32 5 6 C3.54735962 6.8638129 2.0876837 7.71580454 0.625 8.5625 C-0.59316406 9.27599609 -0.59316406 9.27599609 -1.8359375 10.00390625 C-2.55007812 10.33261719 -3.26421875 10.66132813 -4 11 C-4.66 10.67 -5.32 10.34 -6 10 C-5.01 9.67 -4.02 9.34 -3 9 C-1.97718482 6.90280128 -1.97718482 6.90280128 -1.3125 4.4375 C-1.06113281 3.61121094 -0.80976562 2.78492188 -0.55078125 1.93359375 C-0.36902344 1.29550781 -0.18726562 0.65742188 0 0 Z " fill="#DFC7C9" transform="translate(105,135)"/>
<path d="M0 0 C0.66 0.33 1.32 0.66 2 1 C2.38218767 2.65614657 2.71395102 4.32457024 3 6 C3.33 6.66 3.66 7.32 4 8 C2.68 9.32 1.36 10.64 0 12 C-1.03159626 8.90521121 -0.97482862 7.47368607 -0.5625 4.3125 C-0.46066406 3.50425781 -0.35882813 2.69601563 -0.25390625 1.86328125 C-0.17011719 1.24839844 -0.08632812 0.63351563 0 0 Z " fill="#DDB2B6" transform="translate(129,115)"/>
<path d="M0 0 C2.32472205 2.85306797 3.7508258 5.54074837 5 9 C3.35 9 1.7 9 0 9 C-0.66 7.02 -1.32 5.04 -2 3 C-1.34 3 -0.68 3 0 3 C0 2.01 0 1.02 0 0 Z " fill="#DDB9BC" transform="translate(139,91)"/>
<path d="M0 0 C2.46800047 1.15173355 4.04783565 2.04783565 6 4 C6.39764263 5.98821313 6.73775349 7.98944339 7 10 C2.57320993 8.52440331 2.08567304 6.09942632 0 2 C0 1.34 0 0.68 0 0 Z " fill="#B05C6D" transform="translate(128,85)"/>
<path d="M0 0 C1.65 1.65 3.3 3.3 5 5 C4.67 5.99 4.34 6.98 4 8 C2.35 8 0.7 8 -1 8 C-0.67 5.36 -0.34 2.72 0 0 Z " fill="#FBF5EF" transform="translate(84,101)"/>
<path d="M0 0 C0.33 0 0.66 0 1 0 C1.33 3.63 1.66 7.26 2 11 C1.34 10.67 0.68 10.34 0 10 C-0.625 7.9375 -0.625 7.9375 -1 6 C-1.66 6.66 -2.32 7.32 -3 8 C-3.66 5.69 -4.32 3.38 -5 1 C-3.02 1.99 -3.02 1.99 -1 3 C-0.67 2.01 -0.34 1.02 0 0 Z " fill="#E0D7D4" transform="translate(83,123)"/>
<path d="M0 0 C0.928125 0.37125 1.85625 0.7425 2.8125 1.125 C3.864375 1.41375 4.91625 1.7025 6 2 C6.99 1.34 7.98 0.68 9 0 C8.34 2.64 7.68 5.28 7 8 C6.7525 7.360625 6.505 6.72125 6.25 6.0625 C5.20311706 3.80104993 5.20311706 3.80104993 2.9375 3.4375 C2.298125 3.293125 1.65875 3.14875 1 3 C0.67 2.01 0.34 1.02 0 0 Z " fill="#C4636F" transform="translate(113,85)"/>
<path d="M0 0 C2 1 2 1 4 3 C2.02 5.97 2.02 5.97 0 9 C-0.66 8.67 -1.32 8.34 -2 8 C-1.125 2.25 -1.125 2.25 0 0 Z " fill="#E8DAD9" transform="translate(71,119)"/>
<path d="M0 0 C1.1446875 0.3403125 1.1446875 0.3403125 2.3125 0.6875 C-0.01964148 1.89378008 -2.18392139 2.8529738 -4.6875 3.6875 C-5.0175 5.9975 -5.3475 8.3075 -5.6875 10.6875 C-6.3475 10.3575 -7.0075 10.0275 -7.6875 9.6875 C-6.13943687 3.37616571 -6.13943687 3.37616571 -4.375 0.6875 C-2.6875 -0.3125 -2.6875 -0.3125 0 0 Z " fill="#9B97AD" transform="translate(73.6875,56.3125)"/>
<path d="M0 0 C-0.33 1.65 -0.66 3.3 -1 5 C-2.65 4.67 -4.3 4.34 -6 4 C-6 3.01 -6 2.02 -6 1 C-3.92446352 0.4465236 -2.15634036 0 0 0 Z " fill="#343367" transform="translate(95,81)"/>
<path d="M0 0 C1.03159626 3.09478879 0.97482862 4.52631393 0.5625 7.6875 C0.46066406 8.49574219 0.35882813 9.30398437 0.25390625 10.13671875 C0.17011719 10.75160156 0.08632812 11.36648437 0 12 C-0.99 11.34 -1.98 10.68 -3 10 C-2.69201674 8.51988629 -2.378482 7.04092675 -2.0625 5.5625 C-1.88847656 4.73878906 -1.71445313 3.91507812 -1.53515625 3.06640625 C-1 1 -1 1 0 0 Z " fill="#E8CE8E" transform="translate(83,115)"/>
<path d="M0 0 C0 0.99 0 1.98 0 3 C-0.66 3 -1.32 3 -2 3 C-2.33 4.98 -2.66 6.96 -3 9 C-5 6 -5 6 -4.75 3.375 C-4.5025 2.59125 -4.255 1.8075 -4 1 C-2 0 -2 0 0 0 Z " fill="#595780" transform="translate(70,96)"/>
<path d="M0 0 C2 3 2 3 1.875 5.0625 C0.7413007 7.57283417 -0.48618938 8.02691202 -3 9 C-2.44271087 5.65626525 -1.64826111 2.96687001 0 0 Z " fill="#E99B9C" transform="translate(101,137)"/>
<path d="M0 0 C1.485 0.99 1.485 0.99 3 2 C3.1875 5.625 3.1875 5.625 3 9 C1.5 7.875 1.5 7.875 0 6 C-0.1875 2.8125 -0.1875 2.8125 0 0 Z " fill="#4C4A77" transform="translate(80,97)"/>
<path d="M0 0 C0.66 0 1.32 0 2 0 C2.33 1.32 2.66 2.64 3 4 C3.66 4 4.32 4 5 4 C4.34 5.32 3.68 6.64 3 8 C2.34 7.67 1.68 7.34 1 7 C0.59270772 4.67843403 0.25561323 2.3431213 0 0 Z " fill="#DF8F93" transform="translate(116,89)"/>
<path d="M0 0 C0.99 0 1.98 0 3 0 C4.2380014 3.57644848 3.74926071 6.33694766 3 10 C2.67 10 2.34 10 2 10 C1.34 6.7 0.68 3.4 0 0 Z " fill="#E3DCDD" transform="translate(71,107)"/>
<path d="M0 0 C1.32 0.66 2.64 1.32 4 2 C4 3.32 4 4.64 4 6 C2.35 6.66 0.7 7.32 -1 8 C-1.33 7.34 -1.66 6.68 -2 6 C-0.35 5.67 1.3 5.34 3 5 C2.01 3.35 1.02 1.7 0 0 Z " fill="#CAC1C9" transform="translate(76,58)"/>
</svg>
